<svg width="39" height="29" viewBox="0 0 39 29" fill="none" xmlns="http://www.w3.org/2000/svg">
<path d="M38.9465 26.8103C38.9465 26.7035 39 26.5967 39 26.4899V3.151L26.5885 13.6722L38.9465 26.8103Z" fill="white"/>
<path d="M0 3.151V26.4899C0 26.7569 0.053498 27.0239 0.160494 27.291L12.679 13.9392L0 3.151Z" fill="white"/>
<path d="M19.9547 15.1142L37.502 0.213628C37.181 0.053407 36.8601 0 36.4856 0H2.51439C2.1399 0 1.81891 0.053407 1.49792 0.213628L19.0452 15.1142C19.3662 15.3812 19.6337 15.3812 19.9547 15.1142Z" fill="white"/>
<path d="M22.0411 17.5709C21.2922 18.2118 20.3827 18.5322 19.4732 18.5322C18.5638 18.5322 17.6543 18.2118 16.9053 17.5709L15.1399 16.0221L2.94238 29H36.4856C36.5391 29 36.5391 29 36.5926 29L24.1811 15.7551L22.0411 17.5709Z" fill="white"/>
</svg>
