<?xml version="1.0" encoding="utf-8"?>
<!-- Generator: Adobe Illustrator 25.2.1, SVG Export Plug-In . SVG Version: 6.00 Build 0)  -->
<svg version="1.1" id="Layer_1" xmlns="http://www.w3.org/2000/svg" xmlns:xlink="http://www.w3.org/1999/xlink" x="0px" y="0px"
	 viewBox="0 0 432.9 67.9" style="enable-background:new 0 0 432.9 67.9;" xml:space="preserve">
<style type="text/css">
	.st0{fill:#ED1C24;}
</style>
<g>
	<path class="st0" d="M241,40.6c0,4.1-1.9,7.5-5.5,10c-3.7,2.5-8.8,3.8-15.2,3.8c-3.6,0-6.8-0.3-9.7-1s-5.2-1.4-7-2.2V40.6h1.2
		c0.6,0.5,1.3,1,2.2,1.5c0.8,0.5,2.1,1.1,3.6,1.7c1.3,0.6,2.8,1,4.5,1.4s3.5,0.6,5.4,0.6c2.5,0,4.4-0.3,5.6-0.8
		c1.2-0.6,1.8-1.4,1.8-2.5c0-1-0.3-1.7-1.1-2.1c-0.7-0.5-2.1-0.9-4-1.3c-1-0.2-2.2-0.4-3.8-0.7s-3.1-0.6-4.5-0.9
		c-3.6-0.9-6.3-2.4-8.1-4.4s-2.6-4.5-2.6-7.5c0-3.9,1.8-7.1,5.5-9.6c3.6-2.5,8.6-3.8,14.9-3.8c3,0,5.9,0.3,8.6,0.9
		c2.7,0.6,4.9,1.2,6.4,2v10.1H238c-1.9-1.3-4.1-2.4-6.5-3.2c-2.5-0.8-4.9-1.3-7.4-1.3c-2.1,0-3.8,0.3-5.2,0.8
		c-1.4,0.6-2.1,1.4-2.1,2.5c0,0.9,0.3,1.7,1,2.2c0.6,0.5,2.1,1,4.5,1.5c1.3,0.3,2.7,0.5,4.2,0.8c1.5,0.2,3,0.5,4.5,0.9
		c3.4,0.9,5.9,2.3,7.5,4.2C240.1,35.4,241,37.8,241,40.6"/>
	<path class="st0" d="M202.4,35.6h-29.3c0.2,3.2,1.4,5.5,3.5,7.2c2.2,1.7,5.4,2.5,9.7,2.5c2.7,0,5.3-0.5,7.8-1.5s4.5-2,6-3.2h1.4V51
		c-2.9,1.2-5.6,2-8.2,2.5c-2.5,0.5-5.4,0.8-8.5,0.8c-8,0-14.1-1.8-18.4-5.4c-4.2-3.6-6.4-8.7-6.4-15.4c0-6.6,2-11.8,6-15.7
		c4.1-3.8,9.6-5.8,16.7-5.8c6.5,0,11.4,1.7,14.7,4.9c3.3,3.3,4.9,8,4.9,14.2v4.5H202.4z M189.6,28.1c-0.1-2.7-0.7-4.7-2-6.1
		c-1.3-1.4-3.2-2-5.9-2c-2.5,0-4.5,0.7-6.1,1.9c-1.6,1.3-2.5,3.3-2.7,6.2C172.9,28.1,189.6,28.1,189.6,28.1z"/>
	<path class="st0" d="M160.3,25.5h-1.2c-0.6-0.2-1.4-0.3-2.6-0.5c-1.2-0.1-2.2-0.1-3-0.1c-1.9,0-3.5,0.1-4.9,0.4
		c-1.4,0.2-2.9,0.6-4.5,1.2v26.8h-12.8v-40h12.8v5.9c2.8-2.4,5.3-4,7.4-4.8c2.1-0.8,4-1.2,5.8-1.2h1.5c0.6,0,1.1,0.1,1.5,0.1V25.5z"
		/>
	<path class="st0" d="M127.9,32.7c0,3.3-0.5,6.3-1.5,9s-2.3,5-4,6.7c-1.7,1.8-3.6,3.2-5.8,4.2c-2.1,0.9-4.5,1.4-6.9,1.4
		c-2.3,0-4.2-0.2-5.8-0.7c-1.6-0.5-3.2-1.2-4.9-2.1v16.1H86.2l0.1-54.1H99v4.2c2-1.6,4-2.8,6.1-3.8s4.4-1.5,7.1-1.5
		c5,0,8.8,1.8,11.6,5.5C126.5,21.3,127.9,26.3,127.9,32.7 M114.8,33c0-3.9-0.7-6.7-2-8.4c-1.3-1.8-3.4-2.6-6.3-2.6
		c-1.2,0-2.5,0.2-3.7,0.5c-1.3,0.4-2.5,0.9-3.7,1.6v20.1c0.9,0.3,1.8,0.5,2.8,0.6s1.9,0.2,2.9,0.2c3.4,0,5.9-1,7.6-3
		C113.9,39.9,114.8,36.9,114.8,33"/>
	<polygon class="st0" points="83.8,53.2 68.8,53.2 60.3,41.3 41,66.9 26.3,66.9 52.6,33.2 37.1,13.3 52,13.3 60.4,25 68.9,13.3 
		83.6,13.3 68,33 	"/>
	<path class="st0" d="M0,35.6h29.3c-0.2,3.2-1.4,5.5-3.6,7.2s-5.4,2.5-9.7,2.5c-2.7,0-5.3-0.5-7.9-1.5c-2.5-1-4.5-2-6-3.2H0.7V51
		c2.9,1.2,5.6,2,8.2,2.5s5.4,0.8,8.5,0.8c8,0,14.2-1.8,18.4-5.4c4.3-3.6,6.4-8.7,6.4-15.4c0-6.6-2-11.8-6.1-15.7
		c-4-3.8-9.6-5.8-16.7-5.8C12.9,12,8,13.7,4.7,16.9C1.6,20.3,0,25,0,31.1V35.6z M12.7,28.1c0.1-2.7,0.8-4.7,2-6.1
		c1.2-1.4,3.2-2,5.9-2c2.5,0,4.4,0.7,6.1,1.9c1.6,1.3,2.5,3.3,2.7,6.2C29.4,28.1,12.7,28.1,12.7,28.1z"/>
	<path d="M311.8,33.1c0-4.8-0.8-8.4-2.5-10.8c-1.6-2.4-4.1-3.5-7.4-3.5c-2,0-3.9,0.5-5.9,1.3c-1.9,0.8-3.8,1.9-5.6,3.2v22.5
		c1.9,0.9,3.5,1.4,4.9,1.7s3,0.5,4.7,0.5c3.7,0,6.6-1.3,8.7-3.8C310.7,41.8,311.8,38,311.8,33.1 M318.7,33c0,3.2-0.5,6.1-1.4,8.8
		c-0.9,2.6-2.2,4.9-3.9,6.8c-1.6,1.7-3.4,3.1-5.6,4c-2.1,0.9-4.3,1.4-6.7,1.4c-2.1,0-4-0.2-5.6-0.7c-1.7-0.5-3.4-1.1-5.1-2.1v16.6
		h-6.7V13.6h6.7v4.2c1.8-1.5,3.8-2.7,6-3.8c2.3-1,4.6-1.5,7.1-1.5c4.7,0,8.5,1.8,11.1,5.4C317.3,21.5,318.7,26.6,318.7,33"/>
	<path d="M350.3,20.9H350c-1-0.3-2-0.4-2.9-0.5s-2-0.2-3.3-0.2c-2,0-4,0.5-5.9,1.4s-3.7,2.1-5.6,3.6v28.2h-6.7V13.6h6.7v5.9
		c2.6-2.1,5-3.7,7-4.5c2-0.9,4.1-1.4,6.2-1.4c1.1,0,2,0.1,2.5,0.1c0.5,0.1,1.3,0.2,2.4,0.3v6.9H350.3z"/>
	<path d="M359.9,53.3h-6.7V13.6h6.7V53.3z M360.3,6.9h-7.5V0h7.5V6.9z"/>
	<path d="M402.8,53.3h-6.7V30.7c0-1.8-0.1-3.5-0.3-5.1c-0.2-1.6-0.6-2.9-1.2-3.8c-0.6-1-1.4-1.7-2.6-2.2c-1.1-0.5-2.5-0.8-4.3-0.8
		s-3.8,0.5-5.7,1.3c-2,0.9-3.9,2.1-5.7,3.5v29.6h-6.7V13.6h6.7V18c2.1-1.7,4.2-3.1,6.5-4.1c2.2-0.9,4.5-1.4,6.8-1.4
		c4.3,0,7.6,1.3,9.8,3.9c2.2,2.6,3.3,6.3,3.3,11.2v25.7H402.8z"/>
	<path d="M432.9,52.9c-1.3,0.3-2.7,0.6-4.2,0.8c-1.4,0.2-2.7,0.3-3.9,0.3c-4,0-7.2-1.1-9.3-3.2c-2.1-2.2-3.1-5.7-3.1-10.5V19.2h-4.5
		v-5.6h4.5V2.2h6.7v11.4h13.8v5.6h-13.8v18.1c0,2.1,0.1,3.7,0.1,4.9c0.1,1.2,0.4,2.3,1,3.3s1.3,1.7,2.2,2.1c0.9,0.4,2.3,0.7,4.2,0.7
		c1.1,0,2.2-0.2,3.4-0.5c1.2-0.4,2-0.6,2.6-0.8h0.3L432.9,52.9L432.9,52.9z"/>
	<path class="st0" d="M279.4,40.6c0,4.1-1.9,7.5-5.6,10s-8.7,3.8-15.2,3.8c-3.6,0-6.8-0.3-9.7-1s-5.2-1.4-7-2.2V40.6h1.2
		c0.7,0.5,1.4,1,2.2,1.5s2.1,1.1,3.6,1.7c1.3,0.6,2.8,1,4.5,1.4s3.5,0.6,5.4,0.6c2.5,0,4.4-0.3,5.6-0.8c1.2-0.6,1.8-1.4,1.8-2.5
		c0-1-0.3-1.7-1-2.1c-0.7-0.5-2.1-0.9-4.1-1.3c-0.9-0.2-2.2-0.4-3.9-0.7c-1.6-0.3-3.1-0.6-4.4-0.9c-3.6-0.9-6.3-2.4-8.1-4.4
		s-2.6-4.5-2.6-7.5c0-3.9,1.8-7.1,5.4-9.6c3.6-2.5,8.6-3.8,14.9-3.8c3,0,5.9,0.3,8.6,0.9c2.7,0.6,4.9,1.2,6.4,2v10.1h-1.1
		c-1.9-1.3-4.1-2.4-6.5-3.2c-2.4-0.8-4.9-1.3-7.4-1.3c-2.1,0-3.8,0.3-5.2,0.8c-1.4,0.6-2.1,1.4-2.1,2.5c0,0.9,0.3,1.7,0.9,2.2
		c0.7,0.5,2.2,1,4.6,1.5c1.3,0.3,2.7,0.5,4.2,0.8c1.5,0.2,3,0.5,4.5,0.9c3.4,0.9,5.9,2.3,7.5,4.2C278.6,35.4,279.4,37.8,279.4,40.6"
		/>
</g>
</svg>
