<svg width="138" height="32" viewBox="0 0 138 32" fill="none" xmlns="http://www.w3.org/2000/svg">
<path d="M92.3721 19.9655C92.3721 21.4533 91.6282 22.6932 90.2643 23.6851C88.9005 24.677 87.0406 25.049 84.6848 25.049C83.3209 25.049 82.205 24.925 81.0891 24.677C79.9732 24.4291 79.1053 24.1811 78.4854 23.8091V19.9655H78.9813C79.2293 20.0894 79.4773 20.3374 79.8492 20.4614C80.0972 20.7094 80.5932 20.8334 81.2131 21.0814C81.7091 21.3293 82.205 21.4533 82.825 21.5773C83.4449 21.7013 84.0649 21.8253 84.8088 21.8253C85.8007 21.8253 86.4207 21.7013 86.9166 21.5773C87.4126 21.3293 87.5366 21.0814 87.5366 20.7094C87.5366 20.3374 87.4126 20.0894 87.1646 19.9655C86.9166 19.8415 86.4207 19.5935 85.6767 19.4695C85.3048 19.3455 84.8088 19.3455 84.3128 19.2215C83.6929 19.0975 83.1969 18.9735 82.701 18.8495C81.3371 18.4776 80.3452 17.9816 79.7252 17.2377C79.1053 16.4938 78.7333 15.6258 78.7333 14.5099C78.7333 13.146 79.3533 11.9062 80.7172 10.9142C82.081 9.92232 83.9409 9.55035 86.2967 9.55035C87.4126 9.55035 88.4045 9.67434 89.5204 9.92232C90.3883 10.0463 91.1323 10.2943 91.7522 10.5423V14.2619H91.3802C90.6363 13.766 89.8924 13.394 89.0244 13.0221C88.1565 12.7741 87.1646 12.5261 86.2967 12.5261C85.5527 12.5261 84.9328 12.6501 84.3128 12.8981C83.8169 13.146 83.5689 13.394 83.5689 13.766C83.5689 14.138 83.6929 14.3859 83.9409 14.5099C84.1889 14.6339 84.6848 14.8819 85.5527 15.0059C86.0487 15.1299 86.5447 15.2539 87.1646 15.2539C87.7845 15.3778 88.2805 15.5018 88.9004 15.6258C90.1403 15.9978 91.0083 16.4938 91.6282 17.1137C92.1242 18.1056 92.3721 18.9735 92.3721 19.9655Z" fill="#ED1C24"/>
<path d="M78.1129 18.2296H67.3258C67.4498 19.3455 67.8218 20.2134 68.6897 20.8334C69.5577 21.4533 70.6736 21.7013 72.2854 21.7013C73.2773 21.7013 74.2692 21.5773 75.1372 21.2053C76.1291 20.8334 76.873 20.4614 77.369 20.0894H77.8649V23.9331C76.749 24.3051 75.7571 24.677 74.8892 24.925C73.8973 25.173 72.9054 25.173 71.7895 25.173C68.8137 25.173 66.5819 24.5531 64.9701 23.1892C63.3582 21.8253 62.6143 19.9655 62.6143 17.4857C62.6143 15.0059 63.3582 13.146 64.8461 11.6582C66.3339 10.2943 68.4418 9.55035 71.0455 9.55035C73.4013 9.55035 75.2612 10.1703 76.5011 11.4102C77.7409 12.6501 78.3609 14.3859 78.3609 16.6177V18.2296H78.1129ZM73.4013 15.3778C73.4013 14.3859 73.1533 13.642 72.6574 13.146C72.1614 12.6501 71.4175 12.4021 70.4256 12.4021C69.5577 12.4021 68.8137 12.6501 68.1938 13.146C67.5738 13.642 67.3259 14.3859 67.2019 15.3778H73.4013Z" fill="#ED1C24"/>
<path d="M62.4907 14.3859H62.1188C61.8708 14.2619 61.6228 14.2619 61.1269 14.2619C60.6309 14.2619 60.2589 14.2619 60.011 14.2619C59.391 14.2619 58.7711 14.2619 58.2751 14.3859C57.7792 14.5099 57.1592 14.6339 56.6632 14.8819V24.801H51.9517V9.9223H56.6632V12.1541C57.6552 11.2862 58.6471 10.6662 59.391 10.4183C60.1349 10.1703 60.8789 9.9223 61.4988 9.9223C61.6228 9.9223 61.8708 9.9223 62.1188 9.9223C62.3667 9.9223 62.4907 9.9223 62.6147 9.9223V14.3859H62.4907Z" fill="#ED1C24"/>
<path d="M50.5875 17.1137C50.5875 18.3536 50.3395 19.4695 49.9676 20.4614C49.5956 21.4533 49.0996 22.3212 48.4797 22.9412C47.8598 23.6851 47.1158 24.1811 46.3719 24.553C45.628 24.925 44.76 25.049 43.7681 25.049C42.9002 25.049 42.1563 24.925 41.6603 24.801C41.0403 24.677 40.4204 24.429 39.8005 24.0571V30.0086H35.0889V10.0463H39.8005V11.5342C40.5444 10.9142 41.2883 10.5422 42.0323 10.1703C42.7762 9.79831 43.6441 9.67432 44.636 9.67432C46.4959 9.67432 47.8598 10.2943 48.9757 11.6581C50.0916 12.898 50.5875 14.7579 50.5875 17.1137ZM45.6279 17.2377C45.6279 15.7498 45.38 14.7579 44.884 14.1379C44.3881 13.518 43.6441 13.146 42.5282 13.146C42.0323 13.146 41.6603 13.27 41.1643 13.394C40.6684 13.518 40.1724 13.766 39.8005 14.0139V21.4533C40.1724 21.5773 40.4204 21.7013 40.7924 21.7013C41.1643 21.7013 41.5363 21.7013 41.9083 21.7013C43.1482 21.7013 44.1401 21.3293 44.76 20.5854C45.38 19.7174 45.6279 18.6015 45.6279 17.2377Z" fill="#ED1C24"/>
<path d="M34.2212 24.677H28.6417L25.542 20.2134L18.3506 29.7606H13.019L22.6902 17.3617L16.9867 9.9223H22.4422L25.6659 14.2619L28.7657 9.9223H34.2212L28.3937 17.2377L34.2212 24.677Z" fill="#ED1C24"/>
<path d="M3.22356 18.2296H14.0106C13.8866 19.3455 13.5147 20.2134 12.6467 20.8334C12.0268 21.4533 10.7869 21.7013 9.17505 21.7013C8.18313 21.7013 7.19122 21.5773 6.3233 21.2053C5.33138 20.8334 4.58745 20.4614 4.09149 20.0894H3.47154V23.9331C4.58745 24.3051 5.57936 24.677 6.44728 24.925C7.4392 25.173 8.43111 25.173 9.54702 25.173C12.5228 25.173 14.7546 24.5531 16.3664 23.1892C17.9783 21.8253 18.7222 19.9655 18.7222 17.4857C18.7222 15.0059 17.9783 13.146 16.4904 11.6582C15.0025 10.2943 12.8947 9.55035 10.291 9.55035C7.93516 9.55035 6.07532 10.1703 4.83542 11.4102C3.59553 12.6501 2.97559 14.3859 2.97559 16.6177V18.2296H3.22356ZM7.93516 15.3778C7.93516 14.3859 8.18313 13.642 8.67909 13.146C9.17505 12.6501 9.91898 12.4021 10.9109 12.4021C11.7788 12.4021 12.5228 12.6501 13.1427 13.146C13.7627 13.642 14.0106 14.3859 14.1346 15.3778H7.93516Z" fill="#ED1C24"/>
<path d="M102.167 24.5531C101.671 24.677 101.175 24.801 100.679 24.801C100.183 24.925 99.6871 24.925 99.1912 24.925C97.7033 24.925 96.5874 24.5531 95.7195 23.6851C94.9755 22.8172 94.6036 21.5773 94.6036 19.8415V12.1541H92.9917V10.0463H94.6036V5.83069H97.0834V10.0463H102.167V12.1541H97.0834V18.8496C97.0834 19.5935 97.0834 20.2134 97.0834 20.7094C97.0834 21.0814 97.2073 21.5773 97.4553 21.9493C97.7033 22.3213 97.9513 22.5692 98.1992 22.6932C98.5712 22.8172 99.0672 22.9412 99.6871 22.9412C100.059 22.9412 100.555 22.9412 100.927 22.8172C101.423 22.6932 101.671 22.5692 101.919 22.5692H102.043V24.5531H102.167Z" fill="black"/>
<path d="M106.383 4.21881H103.903V24.677H106.383V4.21881Z" fill="black"/>
<path d="M119.029 21.0813V16.9897C118.286 16.9897 117.418 17.1137 116.426 17.2377C115.434 17.3616 114.566 17.4856 113.946 17.6096C113.202 17.8576 112.706 18.1056 112.21 18.6015C111.714 18.9735 111.59 19.5935 111.59 20.3374C111.59 21.2053 111.838 21.8253 112.334 22.1972C112.83 22.5692 113.574 22.8172 114.69 22.8172C115.558 22.8172 116.302 22.6932 117.046 22.3212C117.666 21.9492 118.41 21.5773 119.029 21.0813ZM121.385 24.677H118.905V23.0651C118.657 23.1891 118.41 23.4371 118.038 23.6851C117.666 23.9331 117.294 24.1811 116.922 24.305C116.55 24.553 116.054 24.677 115.558 24.801C115.062 24.925 114.442 25.049 113.698 25.049C112.334 25.049 111.218 24.553 110.35 23.6851C109.482 22.8172 108.986 21.7013 108.986 20.3374C108.986 19.2215 109.234 18.3536 109.73 17.6096C110.226 16.8657 110.846 16.3697 111.714 15.9978C112.582 15.6258 113.698 15.3778 114.938 15.2538C116.178 15.1298 117.542 15.0059 118.905 14.8819V14.5099C118.905 13.8899 118.781 13.518 118.657 13.146C118.41 12.774 118.162 12.5261 117.79 12.2781C117.418 12.0301 117.046 11.9061 116.55 11.9061C116.054 11.9061 115.558 11.7821 115.062 11.7821C114.442 11.7821 113.698 11.9061 112.954 12.0301C112.21 12.1541 111.342 12.4021 110.474 12.774H110.35V10.2943C110.846 10.1703 111.59 10.0463 112.458 9.92229C113.326 9.79831 114.318 9.67432 115.186 9.67432C116.178 9.67432 117.17 9.79831 117.914 9.92229C118.657 10.0463 119.401 10.4183 119.897 10.7902C120.393 11.1622 120.889 11.6581 121.137 12.4021C121.385 13.022 121.633 13.8899 121.633 14.7579V24.677H121.385Z" fill="black"/>
<path d="M135.396 2.73096L132.421 7.69053H129.445L126.469 2.73096H128.577L131.057 6.07867L133.412 2.73096H135.396ZM135.768 23.8091C134.9 24.1811 134.156 24.5531 133.412 24.677C132.669 24.925 131.925 25.049 131.057 25.049C129.941 25.049 129.073 24.925 128.205 24.5531C127.337 24.3051 126.593 23.8091 125.973 23.1892C125.353 22.5692 124.857 21.8253 124.485 20.8334C124.113 19.8415 123.989 18.7256 123.989 17.4857C123.989 15.1299 124.609 13.1461 125.973 11.7822C127.337 10.4183 129.073 9.67435 131.181 9.67435C132.049 9.67435 132.793 9.79834 133.66 10.0463C134.528 10.2943 135.272 10.5423 135.892 10.9142V13.642H135.768C135.024 13.0221 134.28 12.6501 133.412 12.2781C132.669 11.9062 131.801 11.7822 131.057 11.7822C129.693 11.7822 128.577 12.2781 127.709 13.1461C126.841 14.138 126.469 15.5018 126.469 17.2377C126.469 18.9735 126.841 20.3374 127.709 21.3293C128.453 22.3213 129.569 22.6932 131.057 22.6932C131.553 22.6932 132.049 22.5692 132.545 22.4452C133.04 22.3213 133.536 22.1973 133.908 21.9493C134.28 21.8253 134.652 21.5773 134.9 21.3293C135.272 21.0814 135.52 20.9574 135.644 20.8334H135.768V23.8091Z" fill="black"/>
</svg>
