<svg width="34" height="40" viewBox="0 0 34 40" fill="none" xmlns="http://www.w3.org/2000/svg">
<path d="M28.4737 0H5.52632C2.47368 0 0 2.48021 0 5.5409V29.0765V30.2902V39.3668C0 40 0.842105 40.2639 1.15789 39.7361L4.89474 34.0369L4.84211 33.9842H28.4737C31.5263 33.9842 34 31.504 34 28.4433V5.5409C34 2.48021 31.5263 0 28.4737 0ZM11.2105 26.8602L7.1579 27.9156C6.84211 28.0211 6.52632 27.7045 6.63158 27.3879L7.68421 23.3245C7.78947 23.0079 8.21053 22.8496 8.42105 23.1135L11.4211 26.1214C11.6316 26.3325 11.5263 26.7546 11.2105 26.8602ZM24.2632 14.3008L12.8947 25.752C12.7895 25.8575 12.5789 25.8575 12.4737 25.752L8.78947 22.058C8.68421 21.9525 8.68421 21.7414 8.78947 21.6359L20.1579 10.2375C20.2632 10.1319 20.4737 10.1319 20.5789 10.2375L24.2632 13.9314C24.3684 14.0369 24.3684 14.1953 24.2632 14.3008ZM27.5789 10.9763L25.3684 13.1926C25.2632 13.2982 25.0526 13.2982 24.9474 13.1926L21.2632 9.49868C21.1579 9.39314 21.1579 9.18206 21.2632 9.07652L23.4737 6.86016C23.5789 6.75462 23.7895 6.75462 23.8947 6.86016L27.5789 10.5541C27.6842 10.6596 27.6842 10.8707 27.5789 10.9763Z" fill="white"/>
</svg>
