<svg width="21" height="22" viewBox="0 0 21 22" fill="none" xmlns="http://www.w3.org/2000/svg">
<path d="M19.6386 16.0291C18.8254 14.6856 16.8103 13.077 15.9088 13.077C15.8204 13.077 15.7497 13.0947 15.679 13.1124C14.9896 13.3775 14.7775 13.625 14.3179 14.173C14.1941 14.3321 14.035 14.5089 13.8406 14.721C13.6108 14.9508 13.3456 15.0568 13.0275 15.0568C12.0906 15.0568 10.7472 14.173 9.01484 12.4584C6.84059 10.2664 5.97443 8.42805 6.75221 7.63259C6.96433 7.43815 7.1411 7.29674 7.30019 7.15532C7.84817 6.69573 8.09564 6.4836 8.3608 5.79421C8.48453 5.44068 8.29009 4.8927 7.75979 4.11492C7.01736 3.05431 5.49716 1.48108 4.31282 1.48108C4.13605 1.48108 3.97696 1.51643 3.83554 1.58714C3.16383 1.90532 2.61585 2.4533 2.10322 2.9836C2.03251 3.05431 1.94413 3.1427 1.87342 3.2134C-0.30082 5.38764 1.57292 10.4255 6.31029 15.1806C9.61585 18.4861 13.2573 20.5366 15.8381 20.5366C16.8456 20.5366 17.6765 20.2361 18.2775 19.6174L18.3482 19.5467C18.9315 18.9811 19.5325 18.3801 19.9037 17.673C20.1335 17.2311 20.0451 16.6831 19.6386 16.0291Z" stroke="#566C83" stroke-width="1.94444" stroke-miterlimit="10" stroke-linejoin="round"/>
</svg>
