<svg width="40" height="40" viewBox="0 0 40 40" fill="none" xmlns="http://www.w3.org/2000/svg">
<path fill-rule="evenodd" clip-rule="evenodd" d="M31.3149 39.0447C26.0625 39.0447 18.6198 34.8427 11.8495 28.0776C2.15353 18.3764 -1.69649 8.14999 2.68402 3.76423L3.15148 3.28626C4.20197 2.19901 5.29447 1.075 6.65484 0.44471C6.9306 0.321058 7.22979 0.258354 7.53199 0.260876C9.63296 0.260876 12.6268 3.00789 14.4179 5.59207C15.0062 6.43771 15.9411 7.98192 15.6365 8.79604C15.1112 10.1564 14.6543 10.5503 13.5355 11.4905C13.2151 11.7584 12.8369 12.0735 12.38 12.478C10.6047 14.2533 12.3537 18.1401 17.0704 22.862C20.6998 26.4861 23.5571 28.3245 25.5688 28.3245C25.9225 28.3324 26.2741 28.2669 26.6014 28.1322C26.9286 27.9975 27.2244 27.7965 27.4701 27.5419C27.8588 27.1007 28.1792 26.7173 28.4471 26.3969C29.3873 25.2676 29.7759 24.8211 31.1416 24.2959C31.2574 24.2524 31.3803 24.231 31.504 24.2329C33.2373 24.2329 37.3447 27.5156 38.9519 30.1838C39.724 31.4602 39.9026 32.5002 39.4771 33.288C38.7155 34.7377 37.4917 35.9405 36.3257 37.1065L36.1839 37.2483C35.5371 37.8632 34.7718 38.3396 33.9346 38.6484C33.0974 38.9573 32.206 39.0921 31.3149 39.0447Z" fill="white"/>
</svg>
