<svg width="25" height="22" viewBox="0 0 25 22" fill="none" xmlns="http://www.w3.org/2000/svg">
<g clip-path="url(#clip0)">
<path d="M0.995605 1.79474H5.26787L8.635 15.2089H21.2708L24.0043 5.83167H9.86599" stroke="#566C83" stroke-width="1.99131" stroke-miterlimit="10" stroke-linecap="round" stroke-linejoin="round"/>
<path d="M10.2827 21.2009C11.3625 21.2009 12.2378 20.3256 12.2378 19.2458C12.2378 18.166 11.3625 17.2907 10.2827 17.2907C9.20297 17.2907 8.32764 18.166 8.32764 19.2458C8.32764 20.3256 9.20297 21.2009 10.2827 21.2009Z" fill="#566C83"/>
<path d="M19.895 21.2009C20.9748 21.2009 21.8502 20.3256 21.8502 19.2458C21.8502 18.166 20.9748 17.2907 19.895 17.2907C18.8153 17.2907 17.9399 18.166 17.9399 19.2458C17.9399 20.3256 18.8153 21.2009 19.895 21.2009Z" fill="#566C83"/>
</g>
<defs>
<clipPath id="clip0">
<rect width="25" height="20.4019" fill="white" transform="translate(0 0.799072)"/>
</clipPath>
</defs>
</svg>
